solid Mesh
 facet normal 0 -1 0
  outer loop
   vertex 0 0.0127 0
   vertex 1 0.0127 0.151
   vertex 0 0.0127 0.151
  endloop
 endfacet
 facet normal 0 -1 0
  outer loop
   vertex 0 0.0127 0
   vertex 1 0.0127 0
   vertex 1 0.0127 0.151
  endloop
 endfacet
 facet normal -1 -0 -0
  outer loop
   vertex 0 0.1143 0.151
   vertex 0 0.1143 0
   vertex 0 0.0127 0.151
  endloop
 endfacet
 facet normal -1 0 0
  outer loop
   vertex 0 0.1143 0
   vertex 0 0.0127 0
   vertex 0 0.0127 0.151
  endloop
 endfacet
 facet normal -1 0 0
  outer loop
   vertex 1 0 0.151
   vertex 1 0.0127 0
   vertex 1 0 0
  endloop
 endfacet
 facet normal -1 -0 -0
  outer loop
   vertex 1 0.0127 0.151
   vertex 1 0.0127 0
   vertex 1 0 0.151
  endloop
 endfacet
 facet normal 0 0 -1
  outer loop
   vertex 0 0.1143 0
   vertex 1 0.0127 0
   vertex 0 0.0127 0
  endloop
 endfacet
 facet normal 0 0 -1
  outer loop
   vertex 0 0.1143 0
   vertex 1 0.1143 0
   vertex 1 0.0127 0
  endloop
 endfacet
 facet normal 0 0 1
  outer loop
   vertex 1 0.0127 0.151
   vertex 0 0.1143 0.151
   vertex 0 0.0127 0.151
  endloop
 endfacet
 facet normal 0 0 1
  outer loop
   vertex 1 0.1143 0.151
   vertex 0 0.1143 0.151
   vertex 1 0.0127 0.151
  endloop
 endfacet
 facet normal 0 1 -0
  outer loop
   vertex 1 0.1143 0
   vertex 0 0.1143 0.151
   vertex 1 0.1143 0.151
  endloop
 endfacet
 facet normal 0 1 0
  outer loop
   vertex 1 0.1143 0
   vertex 0 0.1143 0
   vertex 0 0.1143 0.151
  endloop
 endfacet
 facet normal 0 0 -1
  outer loop
   vertex 1 0.0127 0
   vertex 2 0.0127 0
   vertex 1 0 0
  endloop
 endfacet
 facet normal 0 0 -1
  outer loop
   vertex 1 0 0
   vertex 2 0.0127 0
   vertex 2 0 0
  endloop
 endfacet
 facet normal 0 0 1
  outer loop
   vertex 2 0.0127 0.151
   vertex 1 0.0127 0.151
   vertex 1 0 0.151
  endloop
 endfacet
 facet normal 0 0 1
  outer loop
   vertex 2 0.0127 0.151
   vertex 1 0 0.151
   vertex 2 0 0.151
  endloop
 endfacet
 facet normal 0 -1 0
  outer loop
   vertex 1 0 0
   vertex 2 0 0
   vertex 2 0 0.151
  endloop
 endfacet
 facet normal 0 -1 0
  outer loop
   vertex 1 0 0.151
   vertex 1 0 0
   vertex 2 0 0.151
  endloop
 endfacet
 facet normal 0 0 -1
  outer loop
   vertex 2 0.0127 0
   vertex 1 0.0127 0
   vertex 2 0.1143 0
  endloop
 endfacet
 facet normal 0 0 -1
  outer loop
   vertex 1 0.0127 0
   vertex 1 0.1143 0
   vertex 2 0.1143 0
  endloop
 endfacet
 facet normal 0 0 1
  outer loop
   vertex 1 0.0127 0.151
   vertex 2 0.0127 0.151
   vertex 2 0.1143 0.151
  endloop
 endfacet
 facet normal -0 0 1
  outer loop
   vertex 1 0.1143 0.151
   vertex 1 0.0127 0.151
   vertex 2 0.1143 0.151
  endloop
 endfacet
 facet normal 0 1 -0
  outer loop
   vertex 2 0.1143 0
   vertex 1 0.1143 0
   vertex 2 0.1143 0.151
  endloop
 endfacet
 facet normal 0 1 0
  outer loop
   vertex 1 0.1143 0
   vertex 1 0.1143 0.151
   vertex 2 0.1143 0.151
  endloop
 endfacet
 facet normal 1 0 0
  outer loop
   vertex 2 0.0127 0
   vertex 2 0 0.151
   vertex 2 0 0
  endloop
 endfacet
 facet normal 1 0 -0
  outer loop
   vertex 2 0.0127 0
   vertex 2 0.0127 0.151
   vertex 2 0 0.151
  endloop
 endfacet
 facet normal 1 -0 0
  outer loop
   vertex 2 0.0127 0.151
   vertex 2 0.0127 0
   vertex 2 0.1143 0.151
  endloop
 endfacet
 facet normal 1 0 0
  outer loop
   vertex 2 0.0127 0
   vertex 2 0.1143 0
   vertex 2 0.1143 0.151
  endloop
 endfacet
endsolid Mesh
